<svg width="89" height="17" viewBox="0 0 89 17" fill="none" xmlns="http://www.w3.org/2000/svg">
<path d="M8.41892 0L10.8932 5.01339L16.4258 5.81733L12.4224 9.71971L13.3674 15.23L8.41892 12.6284L3.4704 15.23L4.41548 9.71971L0.412051 5.81733L5.94466 5.01339L8.41892 0Z" fill="#FFA009"/>
<path d="M26.4594 0L28.9337 5.01339L34.4663 5.81733L30.4629 9.71971L31.408 15.23L26.4594 12.6284L21.5109 15.23L22.456 9.71971L18.4526 5.81733L23.9852 5.01339L26.4594 0Z" fill="#FFA009"/>
<path d="M44.5 0L46.9742 5.01339L52.5068 5.81733L48.5034 9.71971L49.4485 15.23L44.5 12.6284L39.5515 15.23L40.4965 9.71971L36.4931 5.81733L42.0257 5.01339L44.5 0Z" fill="#FFA009"/>
<path d="M62.5406 0L65.0148 5.01339L70.5474 5.81733L66.544 9.71971L67.4891 15.23L62.5406 12.6284L57.592 15.23L58.5371 9.71971L54.5337 5.81733L60.0663 5.01339L62.5406 0Z" fill="#FFA009"/>
<path d="M80.5811 0L83.0553 5.01339L88.588 5.81733L84.5845 9.71971L85.5296 15.23L80.5811 12.6284L75.6326 15.23L76.5777 9.71971L72.5742 5.81733L78.1068 5.01339L80.5811 0Z" fill="#FFA009"/>
</svg>
