<svg width="402" height="405" viewBox="0 0 402 405" fill="none" xmlns="http://www.w3.org/2000/svg">
<path opacity="0.2" d="M362.168 85.8331C356.198 77.6216 305.087 9.70795 222.237 13.0166C218.097 13.1809 137.297 17.4693 107.494 70.7055C85.4482 110.085 108.789 145.024 81.9011 171.855C58.4604 195.236 29.6538 179.759 15.259 198.664C-6.67776 227.461 28.2573 305.235 81.9307 348.609C137.352 393.396 243.382 426.254 325.798 366.501C418.314 299.414 417.375 161.771 362.168 85.8331Z" fill="#F4F7FA"/>
<path d="M181.302 297.059C189.419 279.095 198.706 251.33 194.858 218.965C190.445 181.799 172.752 172.527 160.359 131.969C142.669 74.0638 173.817 36.9137 151.13 17.3335C140.071 7.78684 121.269 5.73113 108.78 12.7421C73.1461 32.7627 71.0661 136.623 119.19 182.494C140.955 203.236 161.899 203.337 177.162 228.772C190.649 251.239 186.446 278.493 181.302 297.059Z" fill="url(#paint0_linear_154_2740)"/>
<g style="mix-blend-mode:soft-light">
<path d="M190.067 250.593C188.926 242.538 187.099 234.596 184.604 226.854C178.887 209.148 171.566 198.953 162.293 186.044C156.24 177.617 149.382 168.063 141.717 154.613C127.383 129.427 123.035 120.654 119.777 106.921C113.327 79.7383 117.295 56.4416 120.235 44.9709C124.397 28.7124 131.706 13.4325 141.745 0L142.295 0.410577C132.307 13.7735 125.037 28.9746 120.897 45.1493C117.974 56.5591 114.027 79.7368 120.443 106.77C123.682 120.418 128.016 129.16 142.317 154.276C149.964 167.704 156.812 177.239 162.853 185.653C172.157 198.61 179.506 208.843 185.255 226.651C187.762 234.431 189.599 242.413 190.745 250.508L190.067 250.593Z" fill="white"/>
</g>
<g style="mix-blend-mode:soft-light">
<path d="M117.325 88.0179L116.862 87.6965C116.768 87.6328 107.552 81.1626 100.035 69.2219C93.0933 58.1958 86.2122 40.1149 92.849 16.5874L93.507 16.7743C86.9394 40.0582 93.7457 57.9481 100.614 68.8552C107.101 79.1607 114.849 85.3378 116.792 86.7974C119.437 67.7481 133.006 56.6937 143.983 50.7587C155.969 44.2787 167.534 42.3447 167.65 42.3263L167.76 43.0031C167.646 43.0215 156.181 44.9427 144.291 51.3717C133.352 57.2897 119.807 68.3611 117.395 87.4572L117.325 88.0179Z" fill="white"/>
</g>
<g style="mix-blend-mode:soft-light">
<path d="M120.269 150.19C109.063 150.19 94.4799 147.335 82.2597 135.466L82.7356 134.973C104.722 156.331 134.49 148.126 137.657 147.17C132.255 109.907 158.415 93.8932 158.679 93.7346L159.028 94.325C158.765 94.4807 132.865 110.359 138.377 147.36L138.42 147.643L138.147 147.735C137.992 147.785 130.553 150.19 120.269 150.19Z" fill="white"/>
</g>
<g style="mix-blend-mode:soft-light">
<path d="M137.923 188.615C129.309 188.615 118.394 186.607 105.476 180.215L105.779 179.599C138.184 195.636 157.744 183.868 159.908 182.44C153.776 162.175 168.777 132.16 168.929 131.857L169.541 132.169C169.388 132.469 154.391 162.479 160.636 182.48L160.71 182.714L160.512 182.855C160.386 182.952 152.391 188.615 137.923 188.615Z" fill="white"/>
</g>
<path d="M233.208 315.658C237.42 300.51 241.491 276.594 231.307 253.695C213.539 213.746 172.382 221.873 138.642 177.471C111.428 141.659 123.847 117.482 92.133 92.1971C86.825 87.9653 58.8614 64.8116 35.168 74.3426C21.8168 79.7084 15.7434 93.0607 14.6038 95.5652C-2.62365 133.439 30.6211 199.298 79.5951 233.099C107.734 252.517 117.95 248.286 168.506 272.866C198.213 287.313 219.873 304.11 233.208 315.658Z" fill="url(#paint1_linear_154_2740)"/>
<g style="mix-blend-mode:soft-light">
<path d="M235.632 334.699C231.99 297.197 220.24 271.006 200.72 256.851C191.192 249.943 183.179 248.138 174.695 246.233C165.436 244.147 155.861 241.985 143.882 232.822C132.226 223.903 128.552 216.147 123.901 206.334C119.763 197.609 114.616 186.75 102.06 171.67C91.0457 158.451 82.6989 151.912 75.3278 146.143C67.2648 139.832 60.8977 134.849 54.0999 123.572C43.0249 105.192 38.6319 82.7212 41.0423 56.7727L41.7243 56.8364C39.3238 82.6405 43.6886 104.973 54.6859 123.218C61.4187 134.386 67.742 139.335 75.7486 145.602C83.1465 151.392 91.5315 157.954 102.585 171.227C115.197 186.376 120.365 197.278 124.518 206.037C129.131 215.766 132.773 223.451 144.298 232.274C156.16 241.352 165.658 243.492 174.845 245.56C183.399 247.487 191.479 249.305 201.121 256.296C220.812 270.57 232.653 296.929 236.313 334.634L235.632 334.699Z" fill="white"/>
</g>
<g style="mix-blend-mode:soft-light">
<path d="M79.1842 148.777L78.7267 148.742C50.3042 146.521 30.4149 133.495 18.7342 122.959C6.07903 111.542 0.0593077 100.493 0 100.379L0.602961 100.052C0.662269 100.168 6.63681 111.127 19.2129 122.465C30.7496 132.867 50.3508 145.714 78.3285 148.018C77.3005 142.78 68.321 93.6793 88.6268 75.2883L89.0857 75.798C68.0231 94.8757 78.9752 147.793 79.0882 148.326L79.1842 148.777Z" fill="white"/>
</g>
<g style="mix-blend-mode:soft-light">
<path d="M82.3247 192.546C81.805 192.546 81.2826 192.546 80.7544 192.536C62.5103 192.313 35.3897 187.965 9.79001 168.522L10.2038 167.974C35.6453 187.298 62.6021 191.618 80.7361 191.85C98.8701 192.082 112.017 188.367 114.074 187.744C109.716 160.162 120.276 123.043 120.383 122.672L121.041 122.863C120.933 123.235 110.342 160.472 114.797 187.929L114.844 188.221L114.561 188.312C114.436 188.356 101.258 192.546 82.3247 192.546Z" fill="white"/>
</g>
<g style="mix-blend-mode:soft-light">
<path d="M104.25 257.606C96.5531 257.599 88.8646 257.091 81.2332 256.085L81.3221 255.404C130.79 261.877 162.569 245.635 166.047 243.751C148.66 216.588 160.95 176.619 161.077 176.218L161.729 176.423C161.603 176.824 149.318 216.793 166.821 243.687L167.019 243.99L166.707 244.171C166.424 244.33 143.08 257.606 104.25 257.606Z" fill="white"/>
</g>
<path d="M134.806 222.894C134.326 222.894 133.862 222.716 133.505 222.393C133.149 222.069 132.925 221.625 132.877 221.145C131.183 203.306 125.393 186.371 116.558 173.442C108.734 161.987 99.4194 155.151 91.636 155.151H91.6105C63.2629 155.206 57.3321 220.46 57.2756 221.127C57.2194 221.63 56.9695 222.091 56.5791 222.412C56.1887 222.733 55.6887 222.888 55.1857 222.844C54.6828 222.801 54.2166 222.562 53.8866 222.179C53.5566 221.796 53.3889 221.299 53.4192 220.794C53.6621 217.962 59.7327 151.34 91.6021 151.279H91.6444C100.84 151.279 111.085 158.558 119.759 171.257C128.955 184.72 134.987 202.307 136.742 220.777C136.768 221.031 136.743 221.288 136.669 221.533C136.595 221.777 136.473 222.005 136.311 222.202C136.149 222.399 135.95 222.563 135.725 222.682C135.5 222.802 135.253 222.877 135 222.901C134.933 222.896 134.868 222.894 134.806 222.894Z" fill="url(#paint2_linear_154_2740)"/>
<path d="M16.7106 357.192L54.0265 376.134L76.6368 306.569L39.3817 213.309L28.8179 215.907L12.7893 349.84C12.6108 351.321 12.8914 352.821 13.593 354.136C14.2946 355.452 15.3831 356.519 16.7106 357.192Z" fill="url(#paint3_linear_154_2740)"/>
<path style="mix-blend-mode:multiply" opacity="0.52" d="M76.6368 306.569L39.3817 213.309L33.1502 214.841C32.4389 224.881 32.4734 234.961 33.2532 244.997C35.7498 276.75 44.0444 285.586 40.0313 307.737C36.6903 326.155 29.394 328.655 30.0323 341.046C30.727 354.543 40.1146 365.845 51.2771 374.732L54.0307 376.13L76.6368 306.569Z" fill="url(#paint4_linear_154_2740)"/>
<path d="M39.3817 213.309H178.52L224.568 362.357L54.0265 376.134L39.3817 213.309Z" fill="url(#paint5_linear_154_2740)"/>
<path d="M82.4843 226.083C82.048 226.083 81.6247 225.935 81.283 225.663C80.9413 225.391 80.7013 225.011 80.6019 224.585C80.2066 222.895 71.0647 182.961 83.9542 163.357C87.6497 157.739 92.8108 154.31 99.2952 153.164C132.62 147.277 153.131 219.03 153.988 222.088C154.057 222.333 154.077 222.59 154.047 222.843C154.016 223.096 153.937 223.34 153.813 223.562C153.688 223.784 153.521 223.98 153.322 224.137C153.122 224.295 152.893 224.411 152.649 224.48C152.404 224.549 152.148 224.569 151.896 224.539C151.644 224.508 151.4 224.429 151.179 224.304C150.957 224.179 150.762 224.012 150.605 223.812C150.448 223.612 150.332 223.382 150.263 223.137C150.061 222.429 129.867 151.693 99.9673 156.985C94.4955 157.953 90.3157 160.735 87.1865 165.494C75.2049 183.713 84.2776 223.301 84.3708 223.699C84.4877 224.2 84.4014 224.728 84.1308 225.165C83.8602 225.603 83.4275 225.915 82.9277 226.032C82.7822 226.066 82.6335 226.083 82.4843 226.083Z" fill="url(#paint6_linear_154_2740)"/>
<path style="mix-blend-mode:multiply" opacity="0.3" d="M178.52 213.309H109.495C106.09 216.78 103.674 220.781 103.444 225.269C102.358 246.357 150.712 253.286 155.375 282.184C158.738 303.034 138.04 327.091 119.571 337.809C100.117 349.105 86.9281 343.387 73.7688 355.928C67.9863 361.437 64.4646 368.324 62.3705 375.466L224.568 362.362L178.52 213.309Z" fill="url(#paint7_linear_154_2740)"/>
<path d="M87.8383 227.255C88.3169 224.299 86.3147 221.514 83.3664 221.034C80.4181 220.554 77.64 222.562 77.1615 225.518C76.6829 228.474 78.685 231.259 81.6333 231.739C84.5816 232.219 87.3597 230.211 87.8383 227.255Z" fill="url(#paint8_linear_154_2740)"/>
<path d="M159.015 226.253C159.493 223.288 157.484 220.496 154.526 220.017C151.569 219.538 148.785 221.553 148.307 224.518C147.829 227.483 149.839 230.274 152.796 230.754C155.753 231.233 158.537 229.218 159.015 226.253Z" fill="url(#paint9_linear_154_2740)"/>
<path d="M280.676 58.697C292.763 161.111 304.849 262.456 316.934 362.733C317.477 367.23 314.379 371.205 310.043 371.576C261.468 376.196 212.895 380.915 164.325 385.734C155.66 386.159 150.901 381.301 150.345 376.441C137.904 268.191 125.464 158.81 113.023 48.2981C112.466 43.3344 116.66 39.0686 125.324 39.4919C174.137 42.9842 222.948 46.4293 271.758 49.8271C276.125 50.1188 280.134 54.1028 280.676 58.697Z" fill="#26264F"/>
<path d="M287.422 58.486C299.585 161.348 311.747 263.127 323.909 363.823C324.454 368.334 321.337 372.334 316.975 372.706C266.538 376.989 216.102 381.357 165.665 385.809C161.061 386.22 156.831 382.564 156.27 377.681C143.75 268.935 131.229 159.042 118.709 48.0035C118.144 43.0186 121.483 39.1917 126.118 39.5089C176.894 42.9067 227.669 46.2621 278.445 49.5751C282.841 49.8667 286.877 53.872 287.422 58.486Z" fill="url(#paint10_linear_154_2740)"/>
<path d="M284.492 75.3196C295.756 170.616 307.021 264.985 318.284 358.428C318.794 362.65 315.884 366.38 311.806 366.713C264.372 370.603 216.939 374.567 169.507 378.605C165.221 378.974 161.28 375.552 160.752 371.015C149.173 270.572 137.598 169.15 126.027 66.747C125.503 62.1132 128.609 58.5284 132.921 58.7847C180.65 61.57 228.378 64.327 276.107 67.0557C280.215 67.2878 283.983 71.0099 284.492 75.3196Z" fill="url(#paint11_linear_154_2740)"/>
<path style="mix-blend-mode:multiply" opacity="0.35" d="M276.115 67.0529C228.952 64.3573 181.788 61.6329 134.624 58.8796C136.211 68.161 138.997 77.1956 142.912 85.7554C158.555 119.784 181.538 121.658 190.529 151.306C199.792 181.857 178.902 191.418 189.108 219.002C200.183 248.933 227.345 244.6 241.701 277.432C254.074 305.731 238.144 318.667 250.941 335.865C264.964 354.713 290.903 348.324 317.84 354.706C306.724 262.482 295.608 169.353 284.492 75.3197C283.983 71.0101 280.215 67.288 276.115 67.0529Z" fill="url(#paint12_linear_154_2740)"/>
<path d="M207.227 54.4907C207.419 56.1485 206.307 57.4171 204.746 57.3222C203.184 57.2274 201.759 55.8017 201.567 54.1381C201.375 52.4746 202.486 51.2018 204.051 51.3066C205.615 51.4113 207.035 52.8314 207.227 54.4907Z" fill="#DE8BDF"/>
<path d="M224.265 146.586C230.294 146.586 235.182 140.805 235.182 133.674C235.182 126.543 230.294 120.762 224.265 120.762C218.236 120.762 213.348 126.543 213.348 133.674C213.348 140.805 218.236 146.586 224.265 146.586Z" fill="url(#paint13_linear_154_2740)"/>
<path d="M267.719 146.586C273.747 146.586 278.634 140.805 278.634 133.674C278.634 126.543 273.747 120.762 267.719 120.762C261.691 120.762 256.804 126.543 256.804 133.674C256.804 140.805 261.691 146.586 267.719 146.586Z" fill="url(#paint14_linear_154_2740)"/>
<path d="M245.871 146.586C251.986 146.586 256.943 140.805 256.943 133.674C256.943 126.543 251.986 120.762 245.871 120.762C239.756 120.762 234.799 126.543 234.799 133.674C234.799 140.805 239.756 146.586 245.871 146.586Z" fill="#D8DEE8"/>
<path d="M311.172 146.586C317.201 146.586 322.089 140.805 322.089 133.674C322.089 126.543 317.201 120.762 311.172 120.762C305.142 120.762 300.255 126.543 300.255 133.674C300.255 140.805 305.142 146.586 311.172 146.586Z" fill="url(#paint15_linear_154_2740)"/>
<path d="M289.325 146.586C295.44 146.586 300.397 140.805 300.397 133.674C300.397 126.543 295.44 120.762 289.325 120.762C283.21 120.762 278.253 126.543 278.253 133.674C278.253 140.805 283.21 146.586 289.325 146.586Z" fill="#D8DEE8"/>
<path d="M332.778 146.586C338.893 146.586 343.85 140.805 343.85 133.674C343.85 126.543 338.893 120.762 332.778 120.762C326.663 120.762 321.706 126.543 321.706 133.674C321.706 140.805 326.663 146.586 332.778 146.586Z" fill="#D8DEE8"/>
<path d="M202.418 146.586C208.533 146.586 213.491 140.805 213.491 133.674C213.491 126.543 208.533 120.762 202.418 120.762C196.303 120.762 191.346 126.543 191.346 133.674C191.346 140.805 196.303 146.586 202.418 146.586Z" fill="#D8DEE8"/>
<path d="M123.844 57.5034L191.583 135.422H366.42L281.7 67.3714L123.844 57.5034Z" fill="url(#paint16_linear_154_2740)"/>
<path d="M123.844 57.5034L191.583 135.422H213.491L142.066 58.6417L123.844 57.5034Z" fill="#F4F7FA"/>
<path d="M161.63 59.865L235.079 135.422H256.717L181.34 61.0981L161.63 59.865Z" fill="#F4F7FA"/>
<path d="M201.197 62.3384L278.408 135.422H300.153L221.202 63.5899L201.197 62.3384Z" fill="#F4F7FA"/>
<path d="M261.675 66.1198L241.361 64.8499L321.949 135.422H343.799L261.675 66.1198Z" fill="#F4F7FA"/>
<path d="M343.821 135.422C344.544 141.725 349.099 146.586 354.626 146.586C360.153 146.586 364.707 141.725 365.43 135.422H343.821Z" fill="url(#paint17_linear_154_2740)"/>
<path opacity="0.63" d="M260.723 184.098C251.262 162.25 227.28 151.639 207.145 160.398C187.01 169.158 178.347 193.971 187.808 215.82C197.269 237.67 221.251 248.278 241.386 239.519C261.521 230.76 270.179 205.947 260.723 184.098ZM231.033 215.234L231.839 221.387L225.941 222.164L225.19 216.432C221.134 216.783 217.08 216.212 214.619 215.186L215.5 207.889C218.208 208.942 221.926 209.744 225.838 209.227C229.268 208.775 231.441 207.139 231.125 204.725C230.824 202.431 228.709 201.238 224.064 200.316C217.34 198.992 212.552 196.554 211.779 190.701C211.083 185.392 214.269 180.737 220.534 178.622L219.783 172.89L225.681 172.112L226.377 177.423C230.433 177.072 233.251 177.564 235.364 178.262L234.517 185.312C232.864 184.854 229.915 183.831 225.581 184.403C221.669 184.917 220.627 186.774 220.849 188.463C221.11 190.454 223.382 191.436 228.757 192.701C236.251 194.29 239.573 197.231 240.286 202.658C240.985 208.029 237.795 213.113 231.033 215.234Z" fill="#F4F7FA"/>
<path opacity="0.63" d="M282.327 302.734L190.164 305.533C188.563 305.581 187 305.04 185.77 304.012C184.54 302.984 183.727 301.539 183.487 299.952L179.75 275.317C179.61 274.394 179.668 273.452 179.92 272.553C180.172 271.654 180.612 270.819 181.211 270.104C181.81 269.389 182.553 268.81 183.393 268.406C184.232 268.002 185.148 267.781 186.079 267.76L278.341 265.618C279.935 265.579 281.488 266.125 282.71 267.153C283.932 268.18 284.738 269.619 284.977 271.2L288.612 295.178C288.752 296.097 288.695 297.036 288.446 297.932C288.196 298.827 287.76 299.66 287.166 300.374C286.572 301.089 285.833 301.668 284.999 302.075C284.165 302.482 283.254 302.706 282.327 302.734Z" fill="#F4F7FA"/>
<path opacity="0.63" d="M285.424 322.985L193.315 326.144C191.71 326.199 190.14 325.661 188.905 324.632C187.669 323.604 186.853 322.156 186.612 320.564L186.576 320.332C186.437 319.414 186.494 318.476 186.742 317.581C186.991 316.686 187.426 315.854 188.019 315.14C188.611 314.426 189.348 313.847 190.181 313.439C191.013 313.031 191.923 312.805 192.849 312.776L284.992 309.85C286.594 309.798 288.16 310.338 289.392 311.366C290.625 312.394 291.438 313.84 291.679 315.429C291.818 316.346 291.762 317.282 291.515 318.176C291.267 319.07 290.834 319.901 290.243 320.615C289.652 321.328 288.917 321.909 288.086 322.317C287.256 322.726 286.348 322.953 285.424 322.985Z" fill="#F4F7FA"/>
<path d="M238.219 187.639C238.781 185.8 238.83 183.841 238.36 181.976C237.089 177.129 232.446 174.414 232.031 174.77C231.807 174.961 232.542 176.275 232.907 176.845C233.665 178.035 234.111 178.042 234.25 178.648C234.532 179.898 232.778 180.461 232.318 182.365C231.986 183.736 232.418 185.425 233.528 186.538C235.371 188.385 238.11 187.672 238.219 187.639Z" fill="url(#paint18_linear_154_2740)"/>
<path d="M346.36 278.859L344.935 273.947L350.881 269.528L354.586 268.139L352.392 275.014L346.36 278.859Z" fill="url(#paint19_linear_154_2740)"/>
<path d="M339 377.82C339 377.82 342.248 386.023 341.4 389.66C344.891 389.592 347.15 389.146 347.15 389.146C347.15 389.146 345.747 385.404 345.473 383.551C345.103 381.048 345.131 376.996 345.131 376.996L339 377.82Z" fill="url(#paint20_linear_154_2740)"/>
<path d="M303.151 397.005C303.513 397.427 303.728 397.956 303.765 398.512C303.776 398.857 303.713 399.202 303.58 399.521C303.027 400.985 302.156 401.177 301.215 402.731C300.642 403.679 300.75 403.965 300.227 404.393C299.533 404.959 298.695 404.989 297.967 404.997C296.221 405.013 294.476 404.914 292.743 404.701C293.911 403.191 295.153 401.662 296.47 400.114C297.049 399.437 297.627 398.776 298.205 398.132L301.636 396.97L303.151 397.005Z" fill="#26264F"/>
<path d="M300.297 380.3C300.297 380.3 298.336 390.562 300.831 393.436C302.958 396.309 299.804 394.26 299.804 394.26L296.038 397.552L293.779 401.463C293.779 401.463 295.858 391.421 295.303 387.436C294.748 383.45 294.471 380.762 294.471 380.762L300.297 380.3Z" fill="url(#paint21_linear_154_2740)"/>
<path d="M292.901 268.057C292.901 268.057 287.632 272.783 287.632 292.247C287.632 311.711 290.127 353.975 290.127 353.975L294.122 384.243C294.122 384.243 298.264 384.385 301.041 383.556C303.537 372.157 307.605 352.871 305.663 336.744C304.831 319.225 312.596 297.259 312.596 297.259C312.596 297.259 319.253 319.504 323.967 330.626C328.68 341.748 337.664 376.592 338.49 379.095C344.007 379.597 346.364 378.134 346.364 378.134C346.364 378.134 342.826 340.636 339.498 326.458C336.17 312.28 336.447 278.075 330.9 268.343C318.416 263.335 292.901 268.057 292.901 268.057Z" fill="url(#paint22_linear_154_2740)"/>
<path d="M292.901 268.057C292.901 268.057 287.632 272.783 287.632 292.247C287.632 311.711 290.127 353.975 290.127 353.975L294.122 384.243C294.122 384.243 298.264 384.385 301.041 383.556C303.537 372.157 307.605 352.871 305.663 336.744C304.831 319.225 312.596 297.259 312.596 297.259C312.596 297.259 319.253 319.504 323.967 330.626C328.68 341.748 337.664 376.592 338.49 379.095C344.007 379.597 346.364 378.134 346.364 378.134C346.364 378.134 342.826 340.636 339.498 326.458C336.17 312.28 336.447 278.075 330.9 268.343C318.416 263.335 292.901 268.057 292.901 268.057Z" fill="url(#paint23_linear_154_2740)"/>
<path style="mix-blend-mode:multiply" opacity="0.25" d="M320.275 303.721C321.918 314.43 325.204 320.195 333.419 327.608C339.992 332.55 335.063 343.259 337.527 351.496C338.349 353.967 340.814 356.437 341.635 358.909C344.692 365.04 341.837 372.538 343.223 379.029C345.381 378.73 346.36 378.128 346.36 378.128C346.36 378.128 342.822 340.63 339.494 326.452C336.166 312.275 336.442 278.069 330.896 268.337C318.416 263.333 292.901 268.054 292.901 268.054C292.901 268.054 287.632 272.78 287.632 292.244C287.632 293.824 287.649 295.556 287.679 297.401C293.149 302.254 304.341 303.333 311.238 297.953C311.627 297.655 312.078 297.451 312.557 297.354L312.592 297.25L312.62 297.347C315.761 296.775 319.562 300.864 320.275 303.721Z" fill="url(#paint24_linear_154_2740)"/>
<path d="M340.54 392.773C340.54 392.773 339.73 392.773 339.798 393.823C339.865 394.872 339.432 398.483 343.552 398.653C347.673 398.823 348.308 398.36 348.442 398.36C348.577 398.36 347.362 394.907 347.362 394.907L346.045 393.208L342.499 392.836L340.54 392.773Z" fill="#26264F"/>
<path d="M349.675 396.398C349.588 395.526 349.101 394.154 348.612 393.048C347.885 391.407 348.482 390.794 347.786 389.299C347.546 388.782 347.311 388.292 346.797 387.807C346.68 387.695 345.543 386.642 343.888 386.695C343.413 386.691 342.943 386.802 342.519 387.018C341.879 387.359 341.558 387.868 341.286 388.322C340.862 389.03 340.955 389.247 340.297 391.274C340.187 391.602 340.1 391.937 340.038 392.278C339.983 392.576 339.947 392.877 339.929 393.18C341.011 393.18 345.164 393.348 346.042 393.992C346.92 394.636 347.359 395.72 347.359 396.803C347.359 397.886 347.9 398.394 348.44 398.36C348.927 398.33 349.884 397.434 349.675 396.398Z" fill="#444B8C"/>
<path d="M299.77 391.995C300.698 392.009 301.379 392.749 301.889 394.535C302.398 396.32 304.867 397.897 301.992 397.521C299.117 397.144 297.027 401.227 296 402.736C294.974 404.246 292.217 405.589 292.285 404.112C292.353 402.636 293.57 401.948 293.912 400.431C294.253 398.915 297.654 391.961 299.77 391.995Z" fill="#444B8C"/>
<path d="M344.256 261.23C344.381 259.213 344.993 246.023 335.211 237.008C327.203 229.627 316.995 229.433 315.545 229.427C306.721 229.389 303.542 233.675 300.153 231.57C294.403 228.009 294.564 210.129 303.143 204.057C312.813 197.211 329.844 207.738 337.787 215.587C348.207 225.892 350.072 238.612 350.398 241.245C351.07 246.631 350.742 252.095 349.429 257.361L344.256 261.23Z" fill="url(#paint25_linear_154_2740)"/>
<path d="M297.033 203.319C287.329 205.726 279.976 208.039 277.011 213.443C273.879 219.152 279.787 222.844 282.182 234.693C285.853 252.83 275.847 260.437 280.205 278.651C281.361 283.424 283.244 287.99 285.788 292.188C289.153 294.552 294.458 297.728 301.481 299.628C311.7 302.394 316.467 300.004 329.93 299.792C351.951 299.443 355.698 305.581 365.32 300.934C375.05 296.24 381.518 284.997 379.061 280.58C377.589 277.934 373.695 279.937 367.703 276.993C359.972 273.201 360.784 267.191 354.401 262.552C345.223 255.898 337.456 263.863 329.598 258.063C321.654 252.196 319.627 236.662 322.13 227.144C323.765 220.927 323.323 214.328 324.411 207.991C324.546 207.227 324.456 206.44 324.153 205.726C322.668 202.239 316.09 202.029 311.121 201.917C303.542 201.749 297.832 203.121 297.033 203.319Z" fill="url(#paint26_linear_154_2740)"/>
<path d="M288.838 205.277L290.561 204.144C290.561 204.144 291.799 206.568 297.976 205.116C299.988 204.531 301.75 203.294 302.986 201.599L304.552 202.165C304.552 202.165 302.746 206.543 298.209 207.767C292.354 209.347 288.838 205.277 288.838 205.277Z" fill="url(#paint27_linear_154_2740)"/>
<path d="M290.425 196.342C289.972 193.415 291.672 190.962 292.045 190.431C293.608 188.221 293.974 187.936 294.633 187.599L295.544 187.175L295.65 187.149C296.215 187.02 298.079 187.187 298.446 187.313C299.615 187.716 300.306 192.773 299.11 199.662L299.207 201.294C301.904 200.998 302.674 201.279 302.802 201.643C303.078 202.433 300.566 204.276 297.981 205.101C294.741 206.136 290.864 205.738 290.626 204.668C290.53 204.233 290.993 203.535 293.216 202.324L293.872 200.432C293.418 200.125 290.76 198.492 290.425 196.342Z" fill="url(#paint28_linear_154_2740)"/>
<path d="M294.155 194.104C294.766 193.444 295.606 194.234 295.5 195.171C295.394 196.108 294.371 196.972 293.516 196.68C292.662 196.389 293.331 194.991 294.155 194.104Z" fill="url(#paint29_linear_154_2740)"/>
<path d="M390.144 166.115C377.321 158.35 355.48 167.868 345.368 180.053C340.67 185.717 339.025 191.265 332.236 193.67C327.07 195.5 318.142 195.954 312.09 191.533C311.327 190.975 308.236 188.608 303.805 185.777C301.852 184.53 299.936 183.383 297.571 183.686C296.97 183.764 294.968 184.009 294.063 185.616C293.329 186.917 293.583 188.731 294.251 189.903C294.65 190.602 294.907 190.611 295.016 191.115C295.324 192.531 292.985 193.86 293.322 194.513C293.566 194.982 294.821 194.418 295.226 194.977C295.673 195.59 294.407 196.597 294.289 198.498C293.358 199.611 293.187 201.755 293.684 204.411C294.413 208.315 295.688 211.29 297.073 213.404C303.772 223.585 308.564 230.867 315.84 233.593C325.473 237.202 331.02 229.661 350.913 222.926C378.153 213.705 387.746 221.076 395.801 211.774C405.865 200.162 403.459 174.177 390.144 166.115Z" fill="url(#paint30_linear_154_2740)"/>
<path d="M239.195 186.626C239.618 189.011 241.755 199.491 251.304 206.081C260.224 212.238 270.011 211.136 271.818 210.895C280.565 209.723 283.129 205.049 286.772 206.663C292.954 209.401 295.232 227.137 287.563 234.327C278.917 242.433 260.612 234.347 251.672 227.655C239.952 218.877 236.369 206.53 235.68 203.966C234.28 198.723 233.86 193.265 234.442 187.869C235.851 186.951 237.518 186.516 239.195 186.627V186.626Z" fill="url(#paint31_linear_154_2740)"/>
<path style="mix-blend-mode:multiply" opacity="0.3" d="M363.669 294.076C360.485 292.27 361.712 286.399 356.993 283.675C352.615 281.146 349.627 285.09 343.339 283.649C335.273 281.809 335.131 274.155 327.394 272.278C321.83 270.927 320.443 274.527 312.612 275.251C304.781 275.974 294.297 273.484 287.194 265.639C284.493 262.635 282.469 259.082 281.264 255.222C279.662 262.159 277.866 268.876 280.207 278.651C281.363 283.425 283.247 287.99 285.791 292.188C289.156 294.552 294.461 297.728 301.483 299.628C311.703 302.394 316.47 300.004 329.933 299.792C351.954 299.444 355.7 305.581 365.322 300.935C371.536 297.934 376.409 292.266 378.484 287.407C370.279 294.361 365.979 295.387 363.669 294.076Z" fill="url(#paint32_linear_154_2740)"/>
<defs>
<linearGradient id="paint0_linear_154_2740" x1="196.118" y1="68.4588" x2="127.274" y2="179.027" gradientUnits="userSpaceOnUse">
<stop stop-color="#E38DDD"/>
<stop offset="1" stop-color="#9571F6"/>
</linearGradient>
<linearGradient id="paint1_linear_154_2740" x1="149.717" y1="128.004" x2="104.682" y2="262.02" gradientUnits="userSpaceOnUse">
<stop stop-color="#AA80F9"/>
<stop offset="1" stop-color="#6165D7"/>
</linearGradient>
<linearGradient id="paint2_linear_154_2740" x1="54092.7" y1="88767.9" x2="56221.4" y2="120971" gradientUnits="userSpaceOnUse">
<stop stop-color="#E38DDD"/>
<stop offset="1" stop-color="#9571F6"/>
</linearGradient>
<linearGradient id="paint3_linear_154_2740" x1="-3.09247" y1="233.996" x2="44.2604" y2="313.197" gradientUnits="userSpaceOnUse">
<stop stop-color="#FF9085"/>
<stop offset="1" stop-color="#FB6FBB"/>
</linearGradient>
<linearGradient id="paint4_linear_154_2740" x1="1417.65" y1="264304" x2="49677.9" y2="287488" gradientUnits="userSpaceOnUse">
<stop stop-color="#FF9085"/>
<stop offset="1" stop-color="#FB6FBB"/>
</linearGradient>
<linearGradient id="paint5_linear_154_2740" x1="103675" y1="306070" x2="260675" y2="443650" gradientUnits="userSpaceOnUse">
<stop stop-color="#FF9085"/>
<stop offset="1" stop-color="#FB6FBB"/>
</linearGradient>
<linearGradient id="paint6_linear_154_2740" x1="57376.5" y1="75903.2" x2="64082" y2="120812" gradientUnits="userSpaceOnUse">
<stop stop-color="#E38DDD"/>
<stop offset="1" stop-color="#9571F6"/>
</linearGradient>
<linearGradient id="paint7_linear_154_2740" x1="92803.9" y1="302256" x2="245321" y2="419799" gradientUnits="userSpaceOnUse">
<stop stop-color="#FF9085"/>
<stop offset="1" stop-color="#FB6FBB"/>
</linearGradient>
<linearGradient id="paint8_linear_154_2740" x1="5837.46" y1="17353.1" x2="6004.57" y2="17415.1" gradientUnits="userSpaceOnUse">
<stop stop-color="#E38DDD"/>
<stop offset="1" stop-color="#9571F6"/>
</linearGradient>
<linearGradient id="paint9_linear_154_2740" x1="11355.3" y1="17354.6" x2="11522.9" y2="17416.6" gradientUnits="userSpaceOnUse">
<stop stop-color="#E38DDD"/>
<stop offset="1" stop-color="#9571F6"/>
</linearGradient>
<linearGradient id="paint10_linear_154_2740" x1="143.234" y1="212.171" x2="444.405" y2="164.641" gradientUnits="userSpaceOnUse">
<stop stop-color="#444B8C"/>
<stop offset="1" stop-color="#26264F"/>
</linearGradient>
<linearGradient id="paint11_linear_154_2740" x1="278.766" y1="94.8106" x2="-19.0505" y2="710.925" gradientUnits="userSpaceOnUse">
<stop stop-color="#FFC444"/>
<stop offset="1" stop-color="#F36F56"/>
</linearGradient>
<linearGradient id="paint12_linear_154_2740" x1="363213" y1="199242" x2="-406597" y2="1.18815e+06" gradientUnits="userSpaceOnUse">
<stop stop-color="#FFC444"/>
<stop offset="1" stop-color="#F36F56"/>
</linearGradient>
<linearGradient id="paint13_linear_154_2740" x1="33201.3" y1="24502.9" x2="36577" y2="24502.9" gradientUnits="userSpaceOnUse">
<stop stop-color="#FF9085"/>
<stop offset="1" stop-color="#FB6FBB"/>
</linearGradient>
<linearGradient id="paint14_linear_154_2740" x1="39958.4" y1="24502.9" x2="43333.6" y2="24502.9" gradientUnits="userSpaceOnUse">
<stop stop-color="#FF9085"/>
<stop offset="1" stop-color="#FB6FBB"/>
</linearGradient>
<linearGradient id="paint15_linear_154_2740" x1="46725.8" y1="24502.9" x2="50101.5" y2="24502.9" gradientUnits="userSpaceOnUse">
<stop stop-color="#FF9085"/>
<stop offset="1" stop-color="#FB6FBB"/>
</linearGradient>
<linearGradient id="paint16_linear_154_2740" x1="212870" y1="53146.8" x2="629578" y2="53146.8" gradientUnits="userSpaceOnUse">
<stop stop-color="#FF9085"/>
<stop offset="1" stop-color="#FB6FBB"/>
</linearGradient>
<linearGradient id="paint17_linear_154_2740" x1="52958.7" y1="11253.6" x2="56265.6" y2="11253.6" gradientUnits="userSpaceOnUse">
<stop stop-color="#FF9085"/>
<stop offset="1" stop-color="#FB6FBB"/>
</linearGradient>
<linearGradient id="paint18_linear_154_2740" x1="280.65" y1="293.62" x2="260.443" y2="244.574" gradientUnits="userSpaceOnUse">
<stop stop-color="#311944"/>
<stop offset="1" stop-color="#893976"/>
</linearGradient>
<linearGradient id="paint19_linear_154_2740" x1="24195.8" y1="20739.9" x2="24382.1" y2="21084.9" gradientUnits="userSpaceOnUse">
<stop stop-color="#FFC444"/>
<stop offset="1" stop-color="#F36F56"/>
</linearGradient>
<linearGradient id="paint20_linear_154_2740" x1="10133" y1="35404" x2="10133" y2="34068.2" gradientUnits="userSpaceOnUse">
<stop stop-color="#FFC444"/>
<stop offset="1" stop-color="#F36F56"/>
</linearGradient>
<linearGradient id="paint21_linear_154_2740" x1="7156.75" y1="59550.3" x2="7156.75" y2="56860" gradientUnits="userSpaceOnUse">
<stop stop-color="#FFC444"/>
<stop offset="1" stop-color="#F36F56"/>
</linearGradient>
<linearGradient id="paint22_linear_154_2740" x1="46706.9" y1="271745" x2="71132.8" y2="271745" gradientUnits="userSpaceOnUse">
<stop stop-color="#311944"/>
<stop offset="1" stop-color="#893976"/>
</linearGradient>
<linearGradient id="paint23_linear_154_2740" x1="45931.1" y1="235097" x2="85569.1" y2="268175" gradientUnits="userSpaceOnUse">
<stop stop-color="#311944"/>
<stop offset="1" stop-color="#893976"/>
</linearGradient>
<linearGradient id="paint24_linear_154_2740" x1="52854.7" y1="216792" x2="91012.6" y2="250103" gradientUnits="userSpaceOnUse">
<stop stop-color="#311944"/>
<stop offset="1" stop-color="#893976"/>
</linearGradient>
<linearGradient id="paint25_linear_154_2740" x1="-16591.1" y1="248818" x2="-41628.2" y2="214690" gradientUnits="userSpaceOnUse">
<stop stop-color="#E38DDD"/>
<stop offset="1" stop-color="#9571F6"/>
</linearGradient>
<linearGradient id="paint26_linear_154_2740" x1="67778" y1="155818" x2="117126" y2="211456" gradientUnits="userSpaceOnUse">
<stop stop-color="#E38DDD"/>
<stop offset="1" stop-color="#9571F6"/>
</linearGradient>
<linearGradient id="paint27_linear_154_2740" x1="-10072.9" y1="13995.4" x2="-9630.9" y2="14733.9" gradientUnits="userSpaceOnUse">
<stop stop-color="#E38DDD"/>
<stop offset="1" stop-color="#9571F6"/>
</linearGradient>
<linearGradient id="paint28_linear_154_2740" x1="6745.76" y1="53567.3" x2="3783.3" y2="47312.1" gradientUnits="userSpaceOnUse">
<stop stop-color="#311944"/>
<stop offset="1" stop-color="#893976"/>
</linearGradient>
<linearGradient id="paint29_linear_154_2740" x1="5305.28" y1="4571.8" x2="5267.85" y2="4229.94" gradientUnits="userSpaceOnUse">
<stop stop-color="#311944"/>
<stop offset="1" stop-color="#893976"/>
</linearGradient>
<linearGradient id="paint30_linear_154_2740" x1="61649.1" y1="64317.9" x2="113207" y2="128830" gradientUnits="userSpaceOnUse">
<stop stop-color="#444B8C"/>
<stop offset="1" stop-color="#26264F"/>
</linearGradient>
<linearGradient id="paint31_linear_154_2740" x1="33934.5" y1="80093.3" x2="57871.5" y2="109293" gradientUnits="userSpaceOnUse">
<stop stop-color="#E38DDD"/>
<stop offset="1" stop-color="#9571F6"/>
</linearGradient>
<linearGradient id="paint32_linear_154_2740" x1="38063.9" y1="72894.7" x2="56548" y2="105816" gradientUnits="userSpaceOnUse">
<stop stop-color="#E38DDD"/>
<stop offset="1" stop-color="#9571F6"/>
</linearGradient>
</defs>
</svg>
